<?xml version="1.0" standalone="no"?>
<!DOCTYPE svg PUBLIC "-//W3C//DTD SVG 20010904//EN"
 "http://www.w3.org/TR/2001/REC-SVG-20010904/DTD/svg10.dtd">
<svg version="1.0" xmlns="http://www.w3.org/2000/svg"
 width="460.000000pt" height="460.000000pt" viewBox="0 0 460.000000 460.000000"
 preserveAspectRatio="xMidYMid meet">
<metadata>
Created by potrace 1.14, written by Peter Selinger 2001-2017
</metadata>
<g transform="translate(0.000000,460.000000) scale(0.100000,-0.100000)"
fill="#000000" stroke="none">
<path d="M2748 4472 c-38 -20 -95 -57 -126 -84 -31 -27 -67 -57 -79 -67 -39
-33 -122 -133 -147 -177 -26 -46 -54 -117 -60 -149 -8 -48 -16 -55 -70 -55
-36 0 -47 -3 -36 -10 12 -8 10 -10 -10 -10 -14 -1 -63 -3 -110 -6 -47 -3 -110
-6 -140 -8 -65 -3 -210 -68 -269 -121 -20 -18 -49 -39 -66 -48 -16 -8 -50 -36
-75 -61 -24 -25 -49 -46 -56 -46 -6 0 -17 -7 -24 -15 -7 -8 -17 -12 -23 -8 -6
3 -7 1 -3 -5 4 -7 3 -12 -3 -12 -5 0 -56 -48 -113 -107 -393 -407 -411 -424
-550 -504 -72 -41 -93 -59 -68 -59 33 0 324 126 360 155 19 16 100 57 100 51
0 -3 -15 -51 -34 -108 -55 -169 -74 -332 -56 -484 7 -54 18 -114 25 -134 7
-19 23 -73 35 -120 28 -106 30 -114 33 -109 2 2 0 72 -3 154 -5 148 -5 149
-10 55 l-5 -95 -17 75 c-30 129 -39 224 -34 372 4 127 8 157 40 263 30 102 70
205 80 205 5 0 -1 -34 -8 -52 -4 -9 -4 -22 0 -29 4 -8 3 -9 -4 -5 -16 10 -16
-35 1 -58 16 -22 81 -37 132 -29 49 7 98 56 89 87 -4 18 -3 18 6 6 10 -12 11
-11 7 8 -4 18 -3 21 8 12 9 -8 14 -5 18 10 3 11 11 20 17 20 7 0 10 -7 7 -17
-4 -10 -11 -38 -18 -63 -6 -25 -17 -67 -25 -95 -24 -86 -44 -187 -52 -265 -9
-95 -9 -271 0 -330 l7 -45 -13 40 c-37 108 -59 363 -44 505 7 64 7 64 -7 25
-21 -61 -18 -259 5 -395 24 -143 30 -162 75 -251 20 -39 34 -74 30 -77 -11
-11 -76 63 -87 100 -6 21 -15 38 -21 38 -5 0 -6 -8 -3 -17 3 -10 -7 -3 -23 15
-36 41 -111 179 -111 204 0 10 -6 17 -12 16 -10 -2 -13 16 -12 65 0 46 -3 64
-10 57 -5 -5 -11 -44 -11 -85 -1 -42 1 -71 5 -65 3 5 14 -13 25 -41 16 -47 55
-100 135 -186 25 -27 31 -45 45 -139 9 -58 24 -131 34 -160 l19 -53 -25 -72
c-13 -39 -22 -73 -20 -76 3 -2 16 23 28 57 l23 63 38 -79 c48 -102 50 -151 7
-241 -39 -83 -127 -173 -191 -198 -26 -9 -45 -21 -42 -26 13 -22 146 3 207 38
l32 20 -3 -72 c-4 -80 14 -129 70 -194 l30 -34 -28 -15 c-67 -33 -75 -41 -64
-63 9 -16 4 -30 -29 -79 -48 -70 -62 -102 -106 -240 -43 -133 -83 -315 -90
-405 l-5 -70 14 85 c13 75 30 143 92 369 23 83 64 180 103 244 20 31 38 57 41
57 3 -1 16 -18 29 -38 36 -56 38 -106 6 -177 -63 -142 -69 -166 -70 -270 l0
-100 50 -27 c28 -15 79 -34 113 -42 35 -8 66 -17 69 -20 3 -3 -2 -26 -11 -53
-9 -26 -19 -72 -23 -102 -5 -48 -13 -61 -65 -119 -32 -36 -56 -67 -54 -70 3
-3 36 26 73 65 62 63 71 69 98 62 17 -3 51 -7 76 -8 l47 -1 -9 -37 c-11 -51
-11 -83 1 -83 5 0 13 19 17 43 l7 42 11 -39 c6 -22 17 -42 23 -44 7 -2 6 12
-5 43 -13 40 -14 55 -3 99 7 28 11 77 9 109 l-4 58 45 -7 c25 -4 79 -17 120
-30 41 -13 98 -26 125 -29 43 -6 55 -3 85 19 19 14 56 37 82 51 34 18 49 33
54 53 3 15 21 85 39 157 18 72 36 167 40 212 6 73 5 83 -9 83 -12 0 -16 -10
-16 -46 0 -60 -16 -160 -41 -249 -10 -38 -22 -91 -25 -117 -6 -39 -11 -48 -36
-59 -16 -6 -47 -25 -68 -40 -43 -31 -56 -36 -44 -17 4 7 3 8 -4 4 -6 -4 -9
-13 -6 -21 9 -23 -52 -15 -151 20 -50 17 -96 30 -104 27 -8 -3 -11 0 -8 5 3 5
-14 9 -41 9 -42 -1 -47 1 -44 19 2 11 15 38 29 60 23 38 24 38 18 10 -6 -28
-5 -29 8 -11 8 11 12 27 10 36 -2 9 3 22 11 29 10 8 16 9 16 3 0 -6 -5 -14
-11 -18 -8 -4 -7 -9 2 -15 12 -7 12 -12 1 -30 -10 -15 -11 -24 -3 -32 8 -8 11
-5 11 10 0 12 5 25 10 28 7 4 8 11 1 18 -27 34 26 129 59 106 12 -9 12 -10 -4
-5 -16 6 -17 4 -6 -9 10 -13 15 -13 21 -3 4 7 26 13 48 13 22 0 37 4 34 8 -3
5 -23 6 -44 3 -21 -3 -40 -2 -44 4 -3 5 -2 10 2 10 5 0 13 10 18 22 8 18 125
96 185 124 8 4 24 15 35 24 25 22 59 34 49 19 -4 -7 -1 -10 7 -7 8 3 14 10 14
17 0 14 26 32 37 25 4 -3 8 1 8 9 0 8 7 17 15 21 8 3 15 0 15 -6 0 -6 3 -8 8
-4 4 4 7 13 7 19 0 10 58 45 77 47 9 0 28 -58 28 -87 0 -37 45 -98 87 -118 21
-10 41 -20 46 -22 4 -2 7 0 7 5 0 4 -18 18 -40 31 -21 12 -48 34 -60 48 -23
29 -28 51 -7 36 6 -6 20 -10 30 -10 14 0 17 5 12 21 -20 71 -17 181 5 146 8
-12 18 -10 65 13 30 15 62 27 70 27 7 0 48 15 89 34 87 40 164 53 224 37 36
-10 46 -19 77 -75 19 -34 35 -68 35 -74 0 -6 15 -37 34 -68 l35 -57 -32 -16
c-23 -11 -33 -24 -35 -44 -5 -45 30 -74 109 -91 29 -6 28 -5 54 -151 8 -43 21
-85 29 -93 8 -8 35 -17 60 -19 46 -6 46 -6 41 -37 -2 -17 -12 -85 -20 -151
-14 -105 -19 -123 -41 -143 -23 -21 -24 -22 -5 -22 11 0 29 12 38 27 l18 27 6
-29 c3 -17 5 15 5 70 0 55 3 135 8 178 8 77 20 96 24 37 1 -17 21 -64 44 -105
43 -78 68 -101 43 -41 -14 33 -12 66 5 66 13 0 39 -36 51 -68 6 -18 15 -32 21
-32 6 0 8 7 4 15 -8 21 4 19 31 -7 13 -12 25 -19 29 -16 3 3 -15 25 -40 49
-32 32 -52 64 -71 114 -24 65 -25 67 -20 25 3 -24 11 -51 18 -58 10 -13 8 -14
-13 -7 -14 4 -25 8 -25 9 -1 0 2 57 5 126 6 135 7 135 41 0 13 -52 73 -115
120 -125 29 -7 29 -7 29 -80 0 -41 5 -77 10 -80 6 -3 10 0 10 8 0 8 17 19 39
25 49 15 48 15 54 -8 5 -19 7 -19 49 -5 44 16 102 40 128 54 8 4 39 36 68 70
59 69 57 71 53 -54 -1 -44 1 -56 9 -45 6 9 9 59 8 118 -1 97 -2 102 -21 96
-17 -5 -19 -3 -12 12 43 108 54 173 36 219 -6 15 -9 11 -15 -23 -3 -23 -4 -52
-1 -65 7 -28 -37 -132 -73 -171 -15 -16 -54 -41 -87 -57 -33 -16 -53 -29 -45
-29 15 0 2 -13 -64 -62 l-29 -21 7 39 c5 28 4 35 -3 24 -6 -8 -11 -25 -11 -38
0 -22 -17 -33 -75 -48 -22 -6 -25 -3 -25 24 0 42 11 92 20 87 25 -16 240 43
240 66 0 12 -7 11 -31 -2 -25 -13 -62 -3 -40 11 11 6 6 12 -18 24 -17 9 -42
34 -56 55 -24 40 -43 57 -51 49 -2 -3 9 -22 26 -43 35 -44 37 -49 13 -36 -10
5 -21 9 -26 10 -16 1 -116 52 -125 64 -5 6 -24 36 -41 65 -26 44 -28 51 -11
42 11 -6 20 -14 20 -19 0 -5 17 -20 38 -35 29 -20 50 -26 88 -26 35 0 45 3 34
10 -8 5 -32 10 -52 10 -20 0 -40 4 -43 10 -3 5 -1 10 5 10 6 0 20 20 31 44 23
53 18 70 -46 154 -22 30 -50 70 -62 90 -13 21 -23 32 -23 26 0 -12 50 -92 96
-152 19 -25 34 -57 34 -71 0 -25 -33 -91 -46 -91 -4 0 -23 14 -43 30 -20 17
-41 35 -48 40 -7 6 -32 10 -56 10 -27 0 -62 10 -93 25 -44 23 -59 25 -154 23
-115 -3 -162 12 -173 52 -13 49 88 83 230 78 84 -3 96 -1 109 16 8 11 14 24
14 30 0 6 -7 0 -16 -12 -8 -12 -24 -22 -35 -22 -33 0 -21 19 29 43 75 35 83
57 69 197 -5 57 -20 127 -37 176 -16 45 -26 84 -24 87 3 2 -4 29 -15 58 -23
66 -70 271 -73 319 -1 34 22 92 41 105 18 11 43 -43 52 -112 4 -37 15 -93 24
-123 9 -30 20 -73 26 -95 6 -22 18 -53 28 -70 10 -16 36 -78 56 -137 29 -83
42 -108 56 -108 12 0 19 -9 22 -27 2 -16 5 10 6 57 2 123 20 314 37 394 8 38
12 71 10 73 -4 4 -19 -61 -50 -220 -17 -84 -25 -174 -18 -182 12 -11 10 -76
-2 -72 -6 2 -10 14 -9 26 2 11 -2 20 -8 18 -13 -3 -42 69 -40 101 0 13 -10 38
-23 55 -13 18 -29 42 -36 55 -17 35 -70 251 -70 290 0 40 -34 92 -60 92 -13 0
-27 -18 -46 -55 -24 -51 -26 -63 -21 -132 3 -42 10 -79 16 -83 14 -8 61 -142
61 -172 0 -13 12 -57 26 -98 33 -96 64 -217 64 -253 0 -63 -22 -119 -53 -136
-17 -9 -42 -26 -55 -39 -18 -18 -31 -22 -52 -17 -16 3 -46 2 -67 -4 -92 -24
-98 -22 -121 23 -12 22 -26 48 -31 56 -5 8 -18 36 -29 61 -12 25 -32 60 -47
77 -14 17 -21 33 -16 36 5 4 11 0 14 -6 3 -10 8 -10 16 -2 9 9 2 19 -28 44
-23 17 -39 36 -36 40 3 5 0 12 -7 17 -7 4 -23 20 -36 34 -19 22 -21 29 -11 57
7 21 20 34 35 38 38 10 108 96 141 175 l31 73 7 -55 c18 -133 100 -369 128
-369 12 0 6 24 -33 135 -31 86 -32 95 -28 215 5 130 3 124 81 332 13 36 43
104 65 150 22 46 50 113 62 151 15 45 28 67 39 67 23 0 80 68 109 130 41 91
101 332 108 441 7 101 -7 229 -32 303 -18 51 -18 51 15 24 16 -12 45 -36 66
-53 20 -16 55 -42 78 -57 23 -15 61 -41 84 -58 72 -52 86 -36 22 25 -42 42
-183 247 -200 293 -6 15 -30 68 -54 117 -46 95 -140 330 -157 393 -18 66 -148
313 -185 350 -7 7 -13 18 -13 24 0 19 -127 201 -173 249 -57 60 -136 104 -251
140 -167 52 -178 52 -258 11z m216 -22 c146 -41 217 -80 294 -160 34 -36 65
-74 68 -84 4 -11 26 -46 50 -79 48 -65 51 -72 30 -80 -11 -4 -13 -1 -9 10 4 9
2 14 -3 11 -5 -4 -10 4 -10 17 -1 13 -12 34 -24 47 -12 13 -28 37 -35 53 -12
28 -35 53 -61 68 -13 7 -54 -25 -54 -42 0 -6 -9 -27 -19 -47 -11 -20 -17 -42
-14 -50 3 -8 -5 -16 -23 -20 -37 -9 -65 -43 -59 -70 3 -16 -4 -29 -25 -45 -16
-13 -30 -30 -30 -36 0 -7 -4 -13 -9 -13 -11 0 -38 -42 -43 -66 -2 -12 2 -18
10 -16 8 1 11 -2 7 -8 -4 -7 -12 -7 -26 0 -10 6 -19 8 -19 4 0 -3 -15 5 -34
20 -19 14 -56 31 -83 37 -26 6 -70 17 -98 25 -30 8 -116 16 -213 18 -90 2
-166 6 -168 9 -3 3 9 15 26 27 38 27 34 36 -6 16 -33 -18 -35 -17 -27 12 3 12
10 19 16 15 6 -4 7 -1 2 6 -17 28 66 163 150 246 128 124 246 204 305 205 14
0 74 -14 134 -30z m331 -239 c3 -5 2 -12 -3 -15 -5 -3 -9 1 -9 9 0 17 3 19 12
6z m164 -226 c12 -24 27 -47 32 -51 14 -8 119 -228 131 -274 6 -19 11 -45 12
-57 0 -11 3 -20 6 -18 3 2 26 -47 49 -108 24 -62 68 -162 97 -222 30 -61 54
-114 54 -117 0 -4 20 -36 45 -71 25 -36 45 -68 45 -72 0 -3 12 -23 28 -43 33
-44 20 -37 -83 46 -108 88 -135 114 -129 123 3 5 -1 6 -9 3 -16 -6 -14 -15 19
-134 29 -100 27 -332 -4 -465 -41 -172 -87 -292 -126 -324 -9 -7 -14 -17 -11
-21 6 -10 -23 -35 -32 -27 -3 4 -1 19 5 34 25 63 35 169 35 378 1 123 -5 255
-11 300 -16 104 -51 247 -64 260 -7 7 -9 2 -5 -15 50 -218 72 -434 62 -615
-10 -188 -38 -361 -56 -350 -5 4 -6 -2 -2 -11 5 -13 3 -15 -7 -9 -8 5 -11 4
-7 -2 11 -17 -25 -117 -68 -188 -23 -38 -46 -80 -49 -92 -4 -12 -23 -38 -42
-58 -19 -19 -34 -38 -34 -40 0 -13 32 -2 51 18 19 19 20 20 11 2 -57 -115 -81
-207 -83 -325 -1 -65 -2 -70 -10 -40 -5 19 -12 79 -15 132 -4 54 -10 95 -14
93 -5 -3 -24 -56 -45 -117 -20 -62 -42 -117 -48 -123 -7 -5 -29 -32 -51 -58
-21 -26 -40 -47 -41 -45 -2 2 0 22 4 45 5 23 5 46 0 50 -4 4 -1 42 6 83 20
110 19 157 -4 169 -14 8 -19 7 -18 -2 0 -6 -1 -25 -2 -42 l-3 -30 -9 30 c-5
17 -10 37 -11 45 -2 8 -10 20 -18 27 -12 10 -10 11 12 7 15 -2 39 -9 53 -14
33 -13 152 -13 160 -1 6 11 -5 15 -87 31 -57 11 -70 21 -46 36 6 4 8 3 5 -3
-8 -12 14 -23 44 -23 15 0 18 5 15 25 -3 15 -1 23 5 20 5 -4 7 -11 4 -16 -4
-5 -2 -9 4 -9 15 0 43 46 45 74 0 13 6 22 11 20 12 -4 62 99 67 136 2 14 13
35 26 48 12 13 22 25 22 28 0 2 9 37 19 77 11 39 23 104 26 142 4 39 13 81 20
95 31 60 49 194 49 360 1 213 -4 303 -20 368 -7 29 -11 60 -8 70 5 15 4 15 -6
2 -9 -13 -11 -12 -9 5 3 39 -1 52 -26 81 -16 18 -23 36 -19 48 5 14 3 16 -7
10 -11 -6 -10 -3 1 12 22 29 24 30 17 12 -11 -30 15 -32 41 -3 20 23 23 35 18
67 -3 21 -14 53 -23 72 -19 40 -13 63 21 76 31 11 40 27 38 62 -2 22 4 31 23
40 31 14 33 52 5 110 -11 23 -20 48 -20 55 0 7 -14 32 -31 56 -26 37 -29 48
-20 65 14 26 14 28 -4 46 -20 19 -48 86 -37 86 5 0 19 -20 31 -45z m-738 -70
c24 -9 50 -22 59 -30 9 -8 19 -13 21 -10 3 2 18 -7 33 -20 16 -14 36 -25 45
-25 23 0 63 -29 56 -41 -3 -5 0 -6 8 -3 8 3 20 -2 27 -11 7 -8 18 -15 24 -15
6 0 19 -11 28 -24 36 -50 85 -218 59 -201 -7 4 -10 13 -7 21 4 9 -1 13 -16 11
-29 -3 -34 21 -6 32 22 9 22 9 3 17 -11 4 -24 12 -28 18 -4 6 -7 -2 -5 -19 3
-26 0 -30 -19 -28 -16 2 -23 -3 -23 -15 0 -14 -2 -15 -10 -2 -8 12 -10 11 -10
-7 0 -13 -1 -23 -2 -23 -2 -1 -21 -3 -43 -6 -52 -8 -75 -21 -75 -42 0 -13 -6
-11 -25 11 -14 15 -31 27 -37 27 -6 0 -4 -8 5 -18 10 -10 14 -22 10 -27 -5 -4
-1 -5 7 -1 9 5 8 2 -2 -7 -22 -17 -23 -31 -3 -23 8 3 15 1 15 -5 0 -17 -53
-32 -72 -20 -24 15 -27 14 -22 -6 4 -14 -1 -18 -23 -18 -15 0 -33 6 -39 14
-12 15 -49 8 -40 -8 3 -5 -4 -11 -17 -15 -12 -3 -23 -1 -25 4 -2 6 -15 7 -28
4 -18 -5 -24 -2 -24 9 0 21 -13 28 -30 17 -12 -7 -12 -11 1 -26 13 -16 12 -17
-5 -11 -17 7 -18 3 -13 -35 5 -31 4 -37 -3 -21 -16 39 -8 101 15 112 20 10 20
10 0 10 -11 1 -25 -7 -31 -16 -14 -24 -10 -109 7 -131 12 -16 12 -16 -6 0 -11
10 -19 32 -19 53 -1 19 -4 35 -8 35 -15 0 -8 -46 12 -85 12 -23 16 -43 11 -48
-11 -11 -33 28 -51 90 -7 23 -17 40 -21 37 -9 -5 -13 11 -9 31 1 6 -2 7 -6 3
-14 -15 -33 28 -34 74 0 26 -4 50 -10 53 -6 4 -10 -5 -10 -19 0 -14 -5 -26
-10 -26 -7 0 -7 -6 0 -20 12 -22 3 -117 -11 -126 -5 -3 -9 0 -9 6 0 7 -7 10
-15 6 -12 -4 -15 7 -15 66 0 90 -19 81 -21 -10 -1 -34 -5 -59 -9 -57 -5 3 -10
-1 -13 -7 -2 -7 -7 2 -11 20 -4 17 -12 33 -17 33 -5 1 -15 2 -21 3 -7 1 -23
-9 -35 -21 -26 -27 -43 -30 -43 -7 0 8 -5 12 -11 8 -6 -3 -15 0 -20 7 -4 7
-12 10 -16 5 -4 -5 -2 -11 5 -13 18 -7 14 -21 -9 -28 -23 -7 -69 34 -69 62 0
12 -7 9 -25 -11 -14 -15 -23 -32 -19 -37 3 -6 -1 -18 -9 -27 -8 -9 -15 -24
-15 -32 -1 -8 -5 -40 -11 -70 l-10 -55 4 55 c4 52 10 95 14 95 1 0 4 23 6 50
2 28 9 63 14 79 13 33 13 36 2 36 -6 0 -13 -19 -16 -43 -5 -34 -14 -48 -41
-66 -34 -23 -35 -23 -49 -5 -7 10 -16 31 -19 45 -7 35 -32 43 -56 19 -11 -11
-25 -20 -30 -20 -6 0 -9 -5 -8 -11 4 -16 -64 -17 -69 -1 -3 6 2 12 11 12 8 0
18 5 22 12 5 8 2 9 -12 4 -10 -5 -25 -9 -31 -9 -8 0 -13 -15 -14 -36 -1 -20
-3 -29 -6 -20 -2 9 -20 20 -41 25 -22 5 -41 18 -48 32 -6 13 -16 28 -21 33
-12 12 -43 1 -39 -14 1 -7 1 -9 -1 -4 -10 17 -42 5 -74 -27 -18 -19 -37 -32
-43 -29 -5 3 -6 1 -3 -4 4 -6 0 -17 -9 -24 -18 -15 -44 -62 -49 -91 -3 -11
-15 -34 -28 -52 -13 -17 -28 -42 -32 -55 -4 -14 -17 -33 -29 -43 -26 -21 -102
-49 -112 -40 -4 4 -4 2 -1 -5 8 -14 -100 -76 -116 -66 -6 4 -7 1 -2 -7 6 -10
4 -12 -8 -7 -9 3 -17 3 -19 -1 -2 -4 -23 -15 -48 -24 -25 -9 -36 -12 -26 -5
10 7 39 27 63 45 24 18 52 34 63 35 11 2 23 7 27 12 5 4 2 5 -4 1 -26 -15 -11
8 35 53 26 25 108 109 182 186 74 77 139 139 143 137 5 -1 6 2 3 7 -8 13 126
129 143 123 8 -3 11 0 7 6 -4 6 6 19 21 29 15 10 46 37 68 61 25 27 50 44 68
46 15 1 30 6 35 11 4 4 0 5 -8 1 -8 -4 -6 0 5 8 11 9 25 14 33 11 7 -2 10 0 7
5 -3 6 -1 10 4 10 6 0 11 7 11 16 0 10 6 14 15 10 8 -3 14 -1 12 4 -3 16 184
95 192 82 6 -9 21 -9 65 0 45 9 60 8 66 -1 6 -10 21 -9 71 3 112 28 170 34
340 35 126 1 177 -3 210 -14z m169 -51 c14 -7 40 -20 58 -29 56 -27 33 -31
-25 -5 -18 8 -33 19 -33 23 0 5 -4 6 -8 3 -5 -3 -21 4 -38 15 -27 19 -28 20
-4 14 14 -4 36 -13 50 -21z m139 -96 c14 -16 22 -28 18 -28 -10 0 -47 42 -47
54 0 5 1 7 3 5 1 -2 13 -16 26 -31z m52 7 c11 6 11 5 2 -5 -12 -14 -33 -6 -33
13 0 8 3 7 9 -2 5 -8 14 -10 22 -6z m20 -72 c13 -16 12 -17 -3 -4 -10 7 -18
15 -18 17 0 8 8 3 21 -13z m86 2 c0 -8 -4 -12 -9 -9 -5 3 -6 10 -3 15 9 13 12
11 12 -6z m-95 -40 c3 -13 1 -22 -3 -19 -9 5 -13 44 -5 44 2 0 6 -11 8 -25z
m103 13 c5 4 5 1 1 -6 -6 -10 -11 -10 -22 -1 -8 6 -14 14 -14 16 0 3 6 0 13
-6 8 -6 18 -7 22 -3z m-58 -13 c0 -8 -4 -12 -9 -9 -5 3 -6 10 -3 15 9 13 12
11 12 -6z m17 -171 c32 -124 47 -222 53 -341 6 -128 23 -161 23 -44 0 122 -35
326 -74 439 -8 23 -13 42 -11 42 21 0 155 -164 155 -189 0 -5 7 -22 15 -37 8
-16 12 -36 10 -45 -3 -10 5 -41 19 -70 46 -101 60 -185 53 -337 -6 -133 -18
-197 -62 -327 -24 -70 -68 -154 -77 -149 -4 3 -5 -1 -2 -9 3 -8 -3 -20 -12
-27 -15 -13 -16 -6 -13 82 2 53 1 94 -3 91 -9 -5 -11 49 -2 71 3 9 10 14 14
11 10 -6 17 17 19 59 0 16 10 58 21 93 16 53 20 91 19 202 -1 75 -5 150 -9
166 -4 17 -7 -40 -6 -130 1 -133 -2 -170 -18 -219 l-19 -58 -19 48 c-16 40
-18 55 -9 91 14 52 14 73 1 73 -5 0 -10 -10 -10 -22 0 -13 -3 -34 -7 -46 -13
-51 -21 5 -16 109 l6 107 -35 35 -35 35 -7 173 c-3 96 -8 192 -11 214 l-6 40
20 -35 c11 -20 26 -63 35 -96z m-57 -26 c-3 -7 -5 -2 -5 12 0 14 2 19 5 13 2
-7 2 -19 0 -25z m-1330 -20 c-3 -8 -6 -5 -6 6 -1 11 2 17 5 13 3 -3 4 -12 1
-19z m1058 -38 c-4 -12 -9 -19 -12 -17 -3 3 -2 15 2 27 4 12 9 19 12 17 3 -3
2 -15 -2 -27z m-406 -136 c39 -79 71 -147 71 -149 0 -2 -23 3 -52 11 -28 9
-73 14 -100 12 l-48 -3 1 55 c1 30 5 66 9 80 l8 25 2 -25 c3 -34 18 51 19 108
1 24 5 41 10 37 5 -3 41 -71 80 -151z m678 104 c-3 -7 -5 -2 -5 12 0 14 2 19
5 13 2 -7 2 -19 0 -25z m-1221 3 c-38 -125 -32 -359 14 -560 16 -74 34 -139
40 -145 6 -6 8 40 5 130 l-5 139 22 -46 c13 -25 34 -69 46 -97 31 -68 123
-161 202 -203 33 -18 71 -43 83 -56 28 -29 42 -30 23 0 -32 52 -48 309 -31
505 6 66 11 82 24 82 14 0 14 -2 1 -10 -16 -12 25 -4 68 11 33 13 130 -19 138
-46 3 -11 26 -70 50 -131 47 -118 53 -150 30 -141 -50 19 -159 39 -152 28 3
-5 29 -11 57 -15 68 -9 119 -31 119 -50 0 -20 -1 -20 -51 6 -60 31 -177 31
-239 0 -25 -12 -37 -20 -27 -17 21 6 23 -18 2 -35 -9 -7 -13 -15 -10 -18 3 -3
19 10 36 29 17 19 28 28 24 22 -5 -10 12 -13 67 -13 l73 0 -39 -33 c-37 -31
-40 -38 -44 -95 -3 -49 0 -69 17 -103 17 -33 19 -40 6 -36 -8 4 -15 3 -15 -2
0 -5 14 -11 31 -15 49 -10 139 -7 139 4 0 6 -5 10 -11 10 -5 0 -8 4 -5 8 2 4
-11 6 -29 4 -54 -6 -102 14 -114 50 -6 17 -11 32 -11 33 0 1 20 2 45 4 42 2
45 0 45 -24 0 -20 5 -25 24 -25 13 0 29 7 36 15 11 13 53 12 69 -1 8 -7 -32
-44 -40 -38 -5 3 -9 -2 -9 -10 0 -24 11 -20 52 18 36 33 37 35 32 94 -6 76 10
89 36 29 11 -24 29 -56 42 -72 l22 -28 -23 -18 c-18 -15 -19 -19 -7 -19 9 0
25 9 36 20 12 12 25 18 30 15 10 -6 6 -331 -6 -436 -7 -62 -27 -119 -42 -119
-5 0 -21 -20 -36 -45 -16 -25 -33 -45 -37 -45 -13 0 -89 -71 -89 -82 0 -6 7
-7 16 -4 12 5 15 2 10 -10 -15 -38 -16 -69 -9 -238 l8 -179 -40 -25 c-22 -14
-67 -48 -99 -76 -37 -32 -61 -46 -63 -38 -10 26 -142 3 -198 -35 -28 -19 -9
-16 53 7 53 20 142 27 142 11 0 -5 -21 -26 -47 -47 -27 -21 -60 -52 -76 -69
l-27 -30 -42 44 c-46 49 -80 62 -156 60 -69 -3 -86 12 -67 59 14 32 40 47 28
16 -13 -33 69 8 141 72 26 23 29 35 43 141 11 86 12 122 4 140 -15 33 -14 43
7 43 9 0 35 9 57 19 l40 19 -40 -5 c-22 -3 -55 -12 -74 -19 -62 -26 -120 -18
-207 27 -43 23 -86 48 -94 55 -9 7 -33 21 -55 31 -53 24 -155 86 -155 94 0 3
-21 19 -46 35 -49 31 -84 87 -84 135 0 34 -35 143 -55 172 -8 12 -15 28 -15
37 0 8 -13 40 -29 70 -41 78 -51 178 -37 350 9 100 18 149 35 187 39 88 48 77
54 -70 3 -73 10 -145 15 -162 8 -29 9 -28 16 20 3 28 9 68 13 90 l6 40 14 -65
c7 -36 11 -73 9 -83 -2 -9 0 -15 5 -11 20 12 6 -14 -45 -80 -53 -70 -82 -134
-73 -159 3 -6 6 -2 6 10 1 29 21 41 21 13 0 -19 34 -59 52 -60 3 0 0 13 -8 30
-15 30 -11 70 7 70 5 0 9 7 9 16 0 19 28 71 52 95 16 16 17 16 34 -2 9 -10 21
-42 25 -70 5 -31 17 -62 30 -75 21 -22 21 -24 4 -24 -12 0 -15 -3 -9 -9 7 -7
126 4 129 12 0 1 13 27 28 57 36 73 37 137 2 178 -18 22 -22 32 -13 35 18 8
-10 27 -29 20 -7 -3 -13 0 -13 6 0 28 -90 6 -118 -28 -16 -21 -8 232 10 303
11 42 18 51 48 63 30 11 31 13 8 9 -18 -2 -28 1 -28 9 0 19 87 234 112 275 11
19 22 46 25 59 4 22 2 23 -14 10 -16 -12 -17 -12 -6 2 7 9 20 16 28 16 9 0 13
-7 11 -16z m-46 -25 c0 -3 -4 -8 -10 -11 -5 -3 -10 -1 -10 4 0 6 5 11 10 11 6
0 10 -2 10 -4z m1547 -28 c-3 -8 -6 -5 -6 6 -1 11 2 17 5 13 3 -3 4 -12 1 -19z
m-1090 -50 c-3 -7 -5 -2 -5 12 0 14 2 19 5 13 2 -7 2 -19 0 -25z m1061 7 c-3
-3 -9 2 -12 12 -6 14 -5 15 5 6 7 -7 10 -15 7 -18z m-1131 -17 c-3 -8 -6 -5
-6 6 -1 11 2 17 5 13 3 -3 4 -12 1 -19z m30 -10 c-3 -7 -5 -2 -5 12 0 14 2 19
5 13 2 -7 2 -19 0 -25z m30 -30 c-3 -7 -5 -2 -5 12 0 14 2 19 5 13 2 -7 2 -19
0 -25z m702 -53 c0 -11 -7 0 -15 25 -17 56 -17 64 1 25 8 -16 14 -39 14 -50z
m441 -13 c0 -23 -17 -4 -23 25 -3 16 -8 37 -11 48 -4 11 3 2 14 -20 11 -22 20
-46 20 -53z m-475 -1 c-3 -8 -2 -17 3 -20 34 -23 94 -536 61 -515 -9 5 -10 2
-4 -12 5 -10 9 -41 8 -69 -6 -263 -12 -395 -18 -405 -4 -6 -9 -59 -12 -117 -8
-148 27 -270 92 -325 19 -17 19 -17 -15 -11 -19 3 -39 10 -44 14 -15 13 -26
11 -26 -6 0 -8 5 -15 11 -15 7 0 9 -9 6 -21 -3 -12 -3 -18 0 -15 10 10 43 -73
43 -107 0 -49 -40 -134 -88 -185 -24 -26 -47 -46 -52 -45 -5 2 -7 -4 -4 -11 3
-8 -2 -17 -13 -20 -10 -3 -30 -17 -45 -31 l-28 -26 0 39 c0 21 4 42 9 48 15
15 49 138 57 202 4 38 2 67 -5 81 -9 16 -9 26 0 43 15 28 23 191 12 243 -4 22
-6 78 -3 125 7 105 -2 140 -37 140 -19 0 -24 4 -19 15 6 17 56 262 56 277 0 4
-4 8 -9 8 -5 0 -12 -21 -16 -47 -3 -27 -15 -82 -25 -123 l-18 -75 0 213 c-1
148 3 225 12 250 14 40 10 158 -5 168 -5 3 -9 20 -9 38 0 19 -7 47 -15 62 -8
16 -15 42 -15 57 0 16 -4 26 -10 22 -6 -4 -10 14 -10 48 0 30 -2 76 -5 103 -4
33 -3 43 4 29 4 -11 6 -24 3 -29 -3 -5 0 -6 6 -3 5 4 8 16 5 27 -9 33 13 23
56 -26 28 -33 48 -46 66 -46 34 0 42 9 27 32 -7 12 -8 21 -2 25 6 3 8 18 5 33
-5 27 -5 27 5 3 6 -14 8 -31 5 -40z m104 12 c15 -54 15 -194 1 -237 -13 -41
-30 -48 -30 -12 0 21 -17 117 -35 193 -4 17 -2 21 10 17 15 -6 22 11 7 18 -5
2 -5 14 -1 28 6 23 7 23 8 3 1 -12 5 -24 10 -27 5 -3 9 0 8 7 -1 24 3 47 8 47
2 0 9 -17 14 -37z m48 5 c-3 -7 -5 -2 -5 12 0 14 2 19 5 13 2 -7 2 -19 0 -25z
m-351 -158 c-3 -36 -6 -72 -6 -80 0 -12 -2 -13 -9 -1 -14 21 -24 -22 -16 -68
4 -22 1 -58 -6 -82 -22 -77 -31 -69 -24 17 7 85 -13 322 -25 289 -4 -10 -2
-43 3 -74 19 -115 -8 -361 -38 -361 -3 0 -4 32 -2 70 2 39 0 73 -6 77 -5 3 -7
23 -4 44 3 25 0 45 -11 60 -9 14 -11 19 -3 14 10 -6 11 -3 2 14 -7 12 -9 27
-5 34 5 6 -1 5 -11 -3 -17 -14 -18 -14 -7 6 9 17 9 24 -3 34 -8 7 -15 19 -15
26 0 8 -5 14 -10 14 -6 0 -9 10 -7 23 2 12 2 16 0 10 -3 -7 -8 -13 -13 -13 -5
0 -7 7 -4 15 4 8 -1 26 -10 40 -15 23 -15 24 1 18 10 -4 14 -2 10 4 -3 5 0 10
8 10 10 0 11 -5 4 -18 -14 -27 -11 -35 5 -13 15 19 15 19 12 -1 -5 -29 12 -55
34 -55 11 0 20 5 20 10 0 6 7 10 15 10 8 0 15 7 15 15 0 8 4 15 9 15 5 0 11
13 14 29 4 20 13 30 31 33 14 3 27 0 30 -6 2 -6 5 -2 6 9 6 52 20 -108 16
-165z m171 158 c-3 -8 -6 -5 -6 6 -1 11 2 17 5 13 3 -3 4 -12 1 -19z m526 -8
c3 -11 1 -18 -4 -14 -5 3 -9 12 -9 20 0 20 7 17 13 -6z m-1864 -5 c5 2 6 -6 4
-19 -4 -19 1 -25 27 -35 18 -6 37 -8 43 -4 6 4 8 -3 4 -19 -12 -46 -35 -223
-36 -275 -1 -30 3 -53 9 -53 5 0 10 17 10 38 0 20 5 44 11 52 13 18 3 -84 -11
-109 -8 -15 -5 -39 15 -130 11 -48 -13 -37 -42 20 -20 40 -41 158 -35 202 1 9
-2 17 -7 17 -5 0 -14 -36 -22 -80 -7 -44 -14 -78 -16 -77 -1 2 -6 54 -9 115
-6 99 -5 112 10 118 14 5 15 8 2 18 -11 9 -13 28 -6 102 7 86 28 155 38 126 2
-6 7 -10 11 -7z m668 -17 c-3 -8 -6 -5 -6 6 -1 11 2 17 5 13 3 -3 4 -12 1 -19z
m653 12 c0 -5 -8 -10 -17 -10 -15 0 -16 2 -3 10 19 12 20 12 20 0z m-1380 -76
c-5 -38 -10 -86 -10 -107 0 -30 -7 -46 -32 -70 -17 -18 -29 -25 -26 -17 3 8
13 49 22 90 22 92 48 181 53 177 2 -2 -1 -35 -7 -73z m577 44 c-3 -7 -5 -2 -5
12 0 14 2 19 5 13 2 -7 2 -19 0 -25z m33 -103 c60 -309 85 -397 117 -418 7 -4
13 -12 13 -18 0 -31 -169 98 -222 170 -38 52 -68 138 -68 195 0 45 -1 47 -17
35 -10 -7 -15 -10 -11 -5 4 4 2 19 -3 33 -13 35 -3 64 19 56 9 -4 19 -10 22
-13 8 -11 80 -19 80 -9 0 5 -9 9 -20 9 -26 0 -25 13 4 47 29 33 38 28 39 -23
1 -20 3 -31 5 -24 3 9 6 9 14 -1 7 -11 9 -9 7 6 -1 11 0 38 2 60 l2 40 4 -45
c1 -25 7 -67 13 -95z m510 115 c0 -5 -5 -10 -11 -10 -5 0 -7 5 -4 10 3 6 8 10
11 10 2 0 4 -4 4 -10z m-493 -47 c-3 -10 -5 -2 -5 17 0 19 2 27 5 18 2 -10 2
-26 0 -35z m115 -40 c-2 -46 -8 -83 -13 -83 -5 0 -9 36 -9 81 0 51 4 78 10 74
6 -3 10 -1 10 6 0 7 1 10 3 8 1 -2 1 -41 -1 -86z m648 77 c0 -5 -4 -10 -10
-10 -5 0 -10 5 -10 10 0 6 5 10 10 10 6 0 10 -4 10 -10z m-671 -218 c16 -5 15
-202 -1 -202 -7 0 -5 -5 4 -12 9 -7 19 -31 22 -53 8 -47 -2 -37 -38 40 -24 51
-76 293 -76 352 0 26 6 36 30 48 17 9 31 21 31 28 1 6 5 -35 10 -93 4 -57 13
-106 18 -108z m-553 171 c-5 -17 -3 -29 6 -34 10 -7 9 -9 -4 -9 -18 0 -23 24
-12 54 10 26 17 18 10 -11z m1764 -18 c0 -5 -5 -3 -10 5 -5 8 -10 20 -10 25 0
6 5 3 10 -5 5 -8 10 -19 10 -25z m-1556 -6 c22 3 26 -3 26 -38 0 -22 -4 -43
-10 -46 -5 -3 -10 -30 -11 -58 -1 -50 -1 -51 -9 -17 -14 56 -23 187 -12 172 5
-8 12 -13 16 -13z m898 -147 c17 -67 24 -232 12 -280 -6 -22 -9 -20 -53 25
l-46 48 22 75 c13 41 26 105 30 143 3 37 8 65 11 62 3 -3 14 -36 24 -73z m300
23 c3 -13 1 -22 -3 -19 -9 5 -13 44 -5 44 2 0 6 -11 8 -25z m-1425 -42 c-3
-10 -5 -4 -5 12 0 17 2 24 5 18 2 -7 2 -21 0 -30z m1383 -29 c-6 -14 -10 -37
-10 -51 0 -38 -8 -24 -14 24 -5 34 -2 42 12 46 9 3 18 5 19 6 1 0 -2 -11 -7
-25z m-1143 -36 c-3 -7 -5 -2 -5 12 0 14 2 19 5 13 2 -7 2 -19 0 -25z m1246
-74 c1 -10 7 -25 11 -33 7 -11 5 -13 -8 -8 -10 4 -22 7 -27 7 -6 0 -7 6 -2 13
8 12 10 18 12 39 2 16 10 6 14 -18z m-643 -43 c0 -24 -36 -37 -56 -20 -13 11
-12 14 8 25 33 19 48 17 48 -5z m654 -20 c10 -11 22 -37 28 -58 15 -55 30
-251 23 -299 -7 -53 -84 -140 -155 -177 l-52 -27 6 38 c3 20 10 100 16 177 13
158 19 181 55 197 21 9 28 8 45 -7 11 -10 20 -23 20 -29 0 -6 -5 -3 -11 7 -6
10 -21 17 -37 16 -21 -1 -22 -2 -7 -6 11 -3 28 -12 39 -22 10 -9 21 -14 25
-11 3 3 11 -11 18 -30 9 -27 12 -30 12 -12 1 29 -14 59 -47 95 -30 31 -47 34
-70 10 -16 -15 -17 -14 -24 23 -4 21 -7 56 -7 76 -1 31 3 38 27 46 43 16 77
14 96 -7z m-1479 -71 c3 -5 1 -10 -4 -10 -6 0 -11 5 -11 10 0 6 2 10 4 10 3 0
8 -4 11 -10z m72 -38 c-10 -9 -23 -12 -38 -7 l-23 8 23 18 c19 15 27 17 38 8
12 -11 12 -14 0 -27z m103 -96 c0 -25 -45 -79 -73 -89 -32 -10 -82 6 -92 30
-8 22 4 31 16 13 9 -12 10 -12 5 2 -4 13 3 22 23 33 27 13 29 13 34 -6 7 -27
39 -22 52 9 11 24 35 30 35 8z m-600 -66 c6 -11 8 -20 6 -20 -3 0 -10 9 -16
20 -6 11 -8 20 -6 20 3 0 10 -9 16 -20z m2050 12 c0 -5 -12 -22 -26 -38 -26
-28 -24 -21 6 24 16 24 20 27 20 14z m-52 -92 c-7 -10 -14 -18 -15 -16 -6 6 9
36 18 36 5 0 4 -9 -3 -20z m-1780 -85 c-3 -3 -9 2 -12 12 -6 14 -5 15 5 6 7
-7 10 -15 7 -18z m1703 -48 l-23 -22 17 28 c10 15 20 25 23 22 3 -3 -5 -16
-17 -28z m-1774 -24 c-3 -10 -5 -4 -5 12 0 17 2 24 5 18 2 -7 2 -21 0 -30z
m113 -58 c0 -13 3 -32 6 -42 5 -13 2 -12 -10 5 -10 12 -14 27 -10 34 4 6 3 8
-3 5 -6 -4 -13 3 -16 14 -3 12 -10 18 -15 15 -5 -3 -15 1 -22 9 -10 12 -7 13
15 9 19 -3 25 -1 20 8 -4 7 3 2 14 -11 12 -13 21 -34 21 -46z m1625 45 c-3 -5
-12 -10 -18 -10 -7 0 -6 4 3 10 19 12 23 12 15 0z m-1674 -67 c-4 -28 -6 -32
-9 -15 -3 22 3 52 11 52 1 0 1 -17 -2 -37z m1632 -323 c1 -30 -2 -57 -8 -59
-17 -8 -67 78 -82 138 -13 58 -17 189 -7 228 4 13 21 28 42 36 l37 15 8 -152
c4 -83 8 -176 10 -206z m-1669 324 c3 -8 2 -12 -4 -9 -6 3 -10 10 -10 16 0 14
7 11 14 -7z m1683 -16 c-3 -7 -5 -2 -5 12 0 14 2 19 5 13 2 -7 2 -19 0 -25z
m-1677 -28 c0 -5 -4 -10 -10 -10 -5 0 -10 5 -10 10 0 6 5 10 10 10 6 0 10 -4
10 -10z m9 -65 c0 -5 -4 -3 -9 5 -5 8 -9 22 -9 30 0 16 17 -16 18 -35z m1361
11 c0 -2 -8 -10 -17 -17 -16 -13 -17 -12 -4 4 13 16 21 21 21 13z m-36 -68
c-4 -13 -7 -28 -7 -35 0 -7 -4 -10 -9 -7 -4 3 -8 -3 -8 -13 0 -14 -2 -15 -9
-4 -7 11 -10 11 -17 -2 -7 -11 -14 -13 -24 -7 -13 8 -12 10 2 10 10 0 30 18
44 40 30 45 39 51 28 18z m-24 8 c0 -2 -8 -10 -17 -17 -16 -13 -17 -12 -4 4
13 16 21 21 21 13z m-1076 -99 c3 4 6 2 6 -4 0 -6 -7 -14 -16 -17 -8 -3 -13
-2 -10 3 6 9 -12 28 -28 31 -5 1 -12 -4 -16 -10 -4 -7 -7 -1 -7 14 l0 26 32
-24 c18 -14 35 -22 39 -19z m1194 12 c-3 -8 -7 -3 -11 10 -4 17 -3 21 5 13 5
-5 8 -16 6 -23z m-1140 -116 c-12 -76 -18 -79 -18 -9 0 32 -5 66 -11 77 -10
20 -9 20 14 5 23 -15 23 -19 15 -73z m950 62 c-3 -3 -9 2 -12 12 -6 14 -5 15
5 6 7 -7 10 -15 7 -18z m-821 -63 c180 -97 246 -123 292 -116 l41 7 0 -77 0
-76 -27 6 c-16 4 -36 11 -46 16 -20 10 -24 8 -104 -62 -54 -48 -171 -137 -199
-153 -19 -11 -45 15 -70 70 -26 59 -12 433 17 433 4 0 48 -21 96 -48z m821
-94 c0 -35 5 -76 11 -93 10 -28 10 -29 -4 -10 -9 11 -22 28 -29 37 -24 28 -36
56 -36 83 0 14 4 24 9 21 5 -3 14 1 21 9 22 26 27 17 28 -47z m-972 -125 c0
-149 11 -190 62 -241 75 -72 85 -138 38 -237 l-24 -48 6 72 c3 48 1 71 -6 71
-16 0 -54 78 -46 92 4 6 3 8 -3 5 -13 -8 -46 50 -37 66 4 6 4 9 -1 5 -5 -5
-16 6 -26 22 -19 31 -39 40 -39 17 0 -7 4 -17 9 -22 5 -6 26 -41 46 -78 31
-58 34 -71 23 -85 -11 -15 -11 -15 3 -4 14 10 19 8 33 -12 19 -29 22 -71 4
-60 -8 5 -9 0 -6 -14 4 -12 2 -22 -3 -22 -5 0 -9 5 -9 12 0 6 -3 8 -6 5 -16
-16 -140 94 -128 114 4 7 3 10 -3 6 -13 -8 -35 17 -63 72 -19 38 -22 56 -18
118 3 49 11 79 22 91 14 17 22 42 12 42 -2 0 -21 -16 -42 -36 -34 -32 -66 -50
-99 -58 -5 -2 -23 -8 -39 -15 -16 -6 -31 -9 -34 -6 -3 3 0 5 7 5 21 0 130 117
152 164 12 26 25 49 30 52 9 5 46 -29 66 -62 6 -10 16 -18 21 -17 6 1 13 -10
17 -25 9 -39 45 -93 56 -86 6 3 1 20 -11 38 -18 30 -29 89 -14 73 13 -13 34
23 40 67 4 25 8 46 8 46 1 0 2 -57 2 -127z m974 -25 c-38 -17 -50 -9 -50 34
l0 42 33 -34 c26 -28 29 -36 17 -42z m177 -5 c-3 -10 -5 -4 -5 12 0 17 2 24 5
18 2 -7 2 -21 0 -30z m193 -126 c-12 -45 -25 -86 -28 -91 -3 -5 -13 6 -22 24
l-17 33 38 60 c22 33 40 67 40 76 1 12 2 12 6 -2 3 -10 -5 -55 -17 -100z
m-226 -13 c-24 -89 -79 -196 -134 -261 -6 -7 -8 -13 -4 -13 4 0 0 -8 -8 -17
-31 -38 -59 -97 -65 -142 -4 -25 -8 -40 -11 -33 -2 6 -7 12 -12 12 -5 0 3 -28
16 -61 14 -34 23 -64 20 -67 -3 -2 -8 4 -12 14 -3 10 -14 37 -25 59 -41 88
-41 179 0 232 12 14 21 31 21 37 0 6 20 31 45 55 25 24 45 48 45 53 0 5 5 6
12 2 7 -4 8 -3 4 5 -4 6 1 26 12 44 11 17 26 51 32 74 9 30 19 43 34 45 12 2
27 16 36 35 8 17 16 30 18 28 2 -2 -9 -47 -24 -101z m219 -180 c11 -14 17 -27
15 -29 -6 -6 -168 -54 -241 -71 -65 -16 -107 -35 -126 -58 -27 -33 -30 -15 -5
24 31 46 73 68 214 111 52 16 97 34 98 39 6 17 26 10 45 -16z m-1053 2 c0 -2
-9 -6 -20 -9 -11 -3 -18 -1 -14 4 5 9 34 13 34 5z m169 -30 c15 -8 36 -26 46
-40 11 -14 25 -26 32 -26 19 0 15 -11 -16 -48 -26 -30 -29 -31 -34 -13 -10 40
-63 56 -178 55 l-106 -1 21 38 c23 42 32 45 144 47 38 1 74 -4 91 -12z m-503
-64 c15 -14 23 -38 27 -81 4 -34 11 -70 17 -81 8 -15 6 -21 -7 -30 -16 -11
-16 -11 -1 -6 23 7 31 -9 18 -34 -15 -28 -26 -25 -34 8 -3 15 -21 80 -40 144
-35 123 -33 130 20 80z m879 -85 c-7 -26 -75 -79 -104 -81 -9 -1 -27 -9 -41
-19 -14 -9 -76 -51 -139 -93 -148 -98 -240 -173 -268 -219 -19 -32 15 62 41
113 23 45 48 67 161 144 22 15 43 28 47 28 4 0 46 24 95 53 81 49 204 108 211
102 2 -1 0 -14 -3 -28z m-431 -6 c17 -5 41 -11 54 -13 21 -3 20 -6 -25 -74
-68 -101 -79 -121 -161 -284 -63 -127 -81 -154 -57 -85 7 20 6 20 -9 1 -9 -11
-16 -35 -16 -54 0 -51 -22 -27 -45 48 -17 57 -17 66 -2 182 9 68 19 150 22
183 3 33 8 72 11 87 l5 27 96 -4 c53 -2 110 -9 127 -14z m-292 -348 c-6 -10
-16 -2 -41 34 -18 26 -43 63 -56 82 -24 32 -24 35 -8 62 l17 28 48 -96 c30
-61 45 -100 40 -110z m-189 101 c14 -37 23 -81 23 -112 -1 -29 2 -45 7 -39 5
7 6 -3 3 -23 -4 -23 -3 -30 3 -21 7 11 12 3 21 -29 6 -23 22 -60 36 -81 l24
-38 -46 -7 c-37 -5 -59 -1 -114 20 -38 15 -74 34 -80 41 -20 24 6 168 51 286
16 41 29 82 30 90 0 16 7 3 42 -87z m104 -168 c59 -51 117 -149 109 -182 -10
-38 -33 -35 -69 9 -44 55 -56 77 -73 145 -8 31 -17 66 -20 77 -5 19 -5 19 7 1
6 -10 27 -33 46 -50z m1788 30 c11 -8 38 -19 60 -26 l40 -12 -9 -126 c-4 -70
-10 -129 -12 -131 -8 -9 -33 35 -34 59 0 14 9 57 20 95 22 78 25 94 11 79 -11
-11 -51 -146 -51 -171 0 -15 -2 -16 -10 -3 -8 12 -10 12 -10 1 0 -10 -10 -12
-42 -7 -24 4 -49 12 -55 19 -7 7 -20 50 -28 95 -9 46 -20 94 -25 107 -5 12 -6
26 -3 29 12 12 129 6 148 -8z m212 -138 c27 -51 61 -100 75 -111 14 -11 53
-22 93 -27 87 -11 110 -30 36 -30 -83 0 -137 18 -171 57 -17 18 -30 38 -30 44
0 6 -18 41 -40 78 -44 74 -46 81 -26 81 8 0 36 -41 63 -92z m-1796 -5 c-16
-21 -34 -54 -38 -73 -7 -25 -16 -36 -31 -38 -26 -4 -30 22 -6 36 11 6 15 17
11 31 -4 15 -1 21 12 21 10 0 30 14 46 30 39 41 42 38 6 -7z m1795 -160 c-6
-6 -46 56 -46 72 0 5 12 -8 26 -28 14 -21 23 -41 20 -44z m-1956 57 c27 -17 0
-24 -33 -7 -30 15 -31 16 -7 16 14 0 32 -3 40 -9z m2432 -51 c-58 -93 -157
-168 -203 -156 -11 3 -19 2 -19 -3 0 -4 -11 -10 -25 -12 -14 -3 -25 -2 -25 2
0 8 55 33 66 30 3 -1 25 16 48 37 22 22 57 50 77 62 21 12 44 33 53 46 9 14
24 25 32 25 14 0 13 -4 -4 -31z m-2382 11 c0 -13 27 -13 32 1 2 5 11 7 20 4
16 -6 28 -34 28 -67 0 -16 -3 -16 -37 -2 -22 10 -57 14 -90 12 -35 -2 -53 1
-53 8 0 16 25 35 34 26 4 -4 12 1 17 11 11 18 49 24 49 7z m1770 -79 c-1 -13
-29 45 -29 59 0 8 6 0 14 -19 8 -18 15 -36 15 -40z m250 23 c0 -2 -9 -4 -20
-4 -11 0 -20 4 -20 9 0 5 9 7 20 4 11 -3 20 -7 20 -9z m-1980 -55 c0 -8 5 -7
15 1 14 11 15 8 12 -26 l-3 -39 -89 3 c-50 2 -94 7 -98 11 -4 5 -5 20 -1 35 6
25 8 26 85 26 52 0 79 -4 79 -11z"/>
<path d="M2533 4255 c0 -8 4 -12 9 -9 5 3 6 10 3 15 -9 13 -12 11 -12 -6z"/>
<path d="M2454 4015 c-32 -15 -60 -42 -51 -51 3 -3 23 6 46 20 22 14 51 26 63
25 13 0 17 -3 11 -6 -20 -7 -15 -23 6 -23 10 0 24 -7 31 -15 14 -17 30 -20 30
-6 0 5 -12 23 -26 40 -29 34 -58 38 -110 16z"/>
<path d="M2467 3914 c-4 -4 -7 -14 -7 -23 0 -12 3 -12 12 -3 7 7 21 12 32 12
32 0 156 -63 151 -77 -2 -7 0 -15 6 -18 5 -4 8 -3 7 2 -3 9 5 13 24 13 6 0 8
-3 5 -7 -4 -3 5 -12 19 -20 39 -19 41 -16 11 15 -15 16 -24 32 -20 36 4 4 0 4
-10 0 -11 -4 -35 5 -65 25 -27 17 -54 31 -61 31 -7 0 -10 3 -8 8 6 9 -87 15
-96 6z"/>
<path d="M2790 3719 c28 -28 40 -46 35 -57 -5 -13 -3 -14 6 -5 7 7 9 19 4 30
-5 10 -9 21 -9 26 -1 9 -57 47 -70 47 -4 0 10 -18 34 -41z"/>
<path d="M1992 3733 c-4 -10 -20 -40 -36 -66 -45 -75 -24 -65 26 13 30 46 41
70 32 70 -8 0 -18 -8 -22 -17z"/>
<path d="M3341 2860 c-4 -8 -8 -40 -15 -102 -3 -31 -19 -96 -36 -145 -32 -95
-36 -113 -20 -113 6 0 10 7 10 16 0 9 5 12 12 8 6 -4 8 -3 4 4 -3 6 2 39 13
74 26 83 44 196 39 233 -3 17 -6 28 -7 25z"/>
<path d="M2301 3224 c0 -11 3 -14 6 -6 3 7 2 16 -1 19 -3 4 -6 -2 -5 -13z"/>
<path d="M2350 2828 c-61 -17 -55 -28 6 -12 32 9 61 18 63 20 7 7 -33 3 -69
-8z"/>
<path d="M1690 2690 c-13 -9 -13 -10 0 -10 8 0 22 5 30 10 13 9 13 10 0 10 -8
0 -22 -5 -30 -10z"/>
<path d="M1539 2583 c-36 -41 -56 -68 -42 -60 13 8 77 87 71 87 -2 0 -15 -12
-29 -27z"/>
<path d="M2180 2185 c-78 -13 -130 -30 -130 -41 0 -3 8 -3 18 1 26 11 80 24
148 35 68 11 113 -1 147 -38 20 -22 26 -74 14 -109 -5 -14 -4 -23 2 -23 18 0
24 70 11 113 -25 79 -56 89 -210 62z"/>
<path d="M1975 2112 c-52 -28 -59 -43 -49 -95 5 -22 45 -77 57 -77 1 0 0 22
-1 50 -4 55 13 119 37 137 25 19 10 14 -44 -15z"/>
<path d="M2473 1757 c-24 -11 -43 -25 -43 -29 0 -10 61 14 92 37 33 22 1 18
-49 -8z"/>
<path d="M2676 3145 c-5 -13 -2 -23 8 -31 9 -6 16 -17 16 -24 0 -7 3 -10 7 -7
3 4 1 17 -5 30 -6 12 -12 29 -14 36 -3 11 -6 10 -12 -4z"/>
<path d="M2722 3130 c0 -19 2 -27 5 -17 2 9 2 25 0 35 -3 9 -5 1 -5 -18z"/>
<path d="M3117 2439 c-5 -17 -21 -66 -32 -94 -7 -19 -7 -19 9 -4 18 16 41 97
32 107 -3 3 -7 -1 -9 -9z"/>
<path d="M3168 2361 c-10 -64 -34 -92 -124 -147 -31 -19 -8 -27 26 -9 78 40
114 94 108 161 l-3 39 -7 -44z"/>
<path d="M1593 715 c-10 -10 -10 -15 0 -23 9 -8 12 -4 13 14 1 13 1 24 0 24 0
-1 -6 -7 -13 -15z"/>
<path d="M1621 694 c0 -11 3 -14 6 -6 3 7 2 16 -1 19 -3 4 -6 -2 -5 -13z"/>
<path d="M1570 658 c0 -4 7 -8 15 -8 8 0 15 4 15 8 0 5 -7 9 -15 9 -8 0 -15
-4 -15 -9z"/>
<path d="M1610 655 c0 -8 2 -15 4 -15 2 0 6 7 10 15 3 8 1 15 -4 15 -6 0 -10
-7 -10 -15z"/>
<path d="M1700 572 c6 -13 14 -21 18 -18 3 4 -2 14 -12 24 -18 16 -18 16 -6
-6z"/>
<path d="M1723 543 c-16 -6 -17 -32 -2 -53 9 -13 10 -13 8 0 -1 8 -1 22 0 30
1 13 2 13 11 0 5 -8 7 -24 3 -35 -5 -17 -4 -18 11 -6 14 12 17 10 27 -18 11
-33 29 -42 29 -15 0 8 -4 12 -10 9 -5 -3 -10 1 -10 9 0 9 -8 25 -17 36 -10 11
-18 26 -18 32 0 13 -15 18 -32 11z"/>
<path d="M577 2247 c-3 -7 -4 -51 -3 -98 1 -63 6 -92 19 -112 27 -41 36 -25
31 51 -3 37 -6 89 -7 117 -1 37 -6 51 -18 53 -9 2 -19 -3 -22 -11z"/>
<path d="M728 2243 c-6 -26 33 -174 43 -167 21 13 -4 184 -27 184 -7 0 -14 -8
-16 -17z"/>
<path d="M653 1955 c8 -47 23 -66 33 -41 9 23 -7 68 -25 74 -11 4 -13 -3 -8
-33z"/>
<path d="M628 1854 c-50 -25 -64 -54 -27 -54 11 0 29 5 41 11 11 6 21 9 24 7
2 -2 -5 -33 -16 -68 -23 -76 -15 -91 32 -63 l33 20 40 -23 c47 -27 55 -29 55
-11 0 23 -67 80 -95 80 -20 0 -25 3 -20 16 19 46 24 75 14 92 -13 24 -24 23
-81 -7z"/>
<path d="M3908 1750 c-23 -17 -68 -97 -68 -117 0 -5 13 12 29 37 31 49 68 86
77 78 3 -4 0 -75 -6 -160 -14 -204 -10 -538 7 -556 7 -7 10 -24 7 -36 -4 -16
3 -32 26 -56 37 -39 51 -34 20 8 -35 47 -30 148 10 225 33 62 39 82 15 51 -22
-29 -18 -13 14 62 34 80 81 134 116 134 13 0 27 -5 30 -10 4 -6 -7 -54 -23
-108 -62 -200 -86 -332 -62 -332 6 0 10 16 10 36 0 33 4 52 32 174 5 25 21 77
35 116 13 39 23 86 21 105 -3 30 -7 34 -35 37 -26 3 -40 -4 -72 -35 -32 -30
-50 -63 -86 -156 -25 -65 -46 -123 -46 -130 -1 -7 -5 6 -10 28 -11 50 -2 379
13 502 9 74 9 95 -2 107 -16 21 -22 20 -52 -4z"/>
<path d="M695 1478 c7 -115 24 -218 36 -218 16 0 22 53 16 149 -9 133 -15 161
-39 161 -18 0 -19 -5 -13 -92z"/>
<path d="M825 1191 c-6 -11 10 -92 26 -133 12 -30 39 -38 39 -13 0 19 -20 103
-31 133 -9 23 -24 29 -34 13z"/>
<path d="M644 1099 c4 -41 11 -90 16 -110 10 -36 32 -55 51 -43 12 7 12 31 0
36 -5 2 -17 43 -28 92 -11 53 -24 91 -32 94 -12 4 -13 -9 -7 -69z"/>
<path d="M3870 1009 c0 -6 -9 -9 -20 -6 -13 3 -20 0 -20 -9 0 -21 33 -17 48 6
7 12 8 20 2 20 -5 0 -10 -5 -10 -11z"/>
<path d="M3684 971 c7 -11 46 -35 46 -28 0 3 -12 12 -26 22 -15 9 -23 12 -20
6z"/>
<path d="M3650 939 c0 -26 3 -29 14 -20 8 7 12 21 9 31 -8 31 -23 23 -23 -11z"/>
<path d="M4186 951 c-3 -5 5 -12 19 -15 13 -3 29 -14 34 -24 12 -24 -4 -174
-23 -214 -20 -38 -20 -39 0 -31 14 5 15 1 9 -25 -4 -18 -3 -32 3 -32 5 0 12
44 15 98 4 53 10 120 13 149 6 46 4 54 -19 77 -27 27 -42 32 -51 17z"/>
<path d="M2991 819 c-39 -67 -69 -124 -67 -126 3 -3 12 10 22 29 9 18 25 44
34 58 39 58 92 152 87 156 -2 2 -36 -50 -76 -117z"/>
<path d="M4088 930 c-4 -8 -8 -27 -11 -42 -3 -21 0 -28 13 -28 13 0 16 -7 12
-30 -5 -35 -9 -36 -34 -13 -24 21 -23 2 1 -28 10 -13 22 -35 26 -49 13 -41 47
-80 69 -79 16 1 17 2 4 6 -9 2 -27 25 -39 49 -21 45 -22 97 -3 147 5 13 2 16
-9 11 -12 -4 -16 3 -19 33 -2 22 -6 32 -10 23z"/>
<path d="M3760 919 c0 -4 29 -22 64 -39 48 -23 77 -46 115 -91 28 -33 51 -56
51 -51 0 5 -7 16 -16 23 -9 8 -27 30 -40 51 -16 26 -45 48 -99 76 -41 22 -75
36 -75 31z"/>
<path d="M1496 874 c-10 -37 -2 -39 11 -4 6 17 8 30 3 30 -4 0 -11 -12 -14
-26z"/>
<path d="M3654 846 c11 -9 24 -16 30 -16 12 0 7 5 -24 19 -24 11 -24 11 -6 -3z"/>
<path d="M2444 789 c-3 -6 -15 -9 -25 -6 -21 6 -35 -8 -19 -18 13 -8 13 -45 0
-45 -5 0 -10 -5 -10 -11 0 -5 4 -8 9 -4 5 3 12 -3 15 -12 3 -10 4 3 3 30 -2
48 9 66 15 25 3 -24 20 -28 27 -7 2 7 -1 9 -8 5 -7 -5 -11 1 -11 16 0 18 2 20
10 8 8 -12 10 -11 10 8 0 24 -5 28 -16 11z"/>
<path d="M1441 707 c-18 -41 -45 -126 -61 -189 -15 -63 -37 -134 -48 -158 -38
-85 -52 -122 -53 -144 -1 -12 -5 -5 -8 14 -6 31 -8 25 -23 -55 -27 -141 -31
-182 -19 -165 7 10 11 11 11 3 0 -26 20 -12 21 15 l1 27 9 -30 c5 -20 7 -7 3
40 -5 77 16 182 41 201 8 6 15 18 15 26 0 14 63 196 113 328 14 36 28 74 33
85 4 11 4 17 0 14 -4 -4 -20 -40 -36 -80 -16 -41 -29 -66 -30 -57 0 9 16 56
35 104 19 48 34 89 32 91 -2 2 -19 -30 -36 -70z m-174 -549 c-3 -7 -5 -2 -5
12 0 14 2 19 5 13 2 -7 2 -19 0 -25z"/>
<path d="M2320 740 c0 -5 4 -10 9 -10 6 0 13 5 16 10 3 6 -1 10 -9 10 -9 0
-16 -4 -16 -10z"/>
<path d="M3935 704 c-4 -22 -11 -55 -16 -74 -11 -44 -11 -72 1 -43 13 31 32
144 26 150 -2 3 -8 -12 -11 -33z"/>
<path d="M2307 710 c2 -8 6 -33 9 -55 5 -39 4 -40 -10 -15 -19 31 -19 26 -2
-24 l13 -39 8 39 c4 22 11 44 16 51 7 8 4 15 -8 22 -24 14 2 14 28 1 13 -7 19
-7 19 0 0 5 -7 10 -15 10 -8 0 -15 5 -15 10 0 6 5 10 12 10 6 0 9 2 6 5 -3 3
-17 1 -31 -4 -14 -6 -27 -7 -30 -3 -2 4 -2 0 0 -8z"/>
<path d="M2258 685 c-6 -13 -15 -22 -19 -19 -5 3 -6 -1 -3 -9 3 -8 -5 -36 -17
-62 -16 -34 -24 -43 -31 -33 -6 9 -7 5 -3 -10 11 -38 -3 -69 -36 -86 -17 -9
-35 -13 -40 -10 -5 3 -9 1 -9 -3 0 -15 -57 -43 -74 -37 -9 3 -16 1 -16 -6 0
-6 5 -8 10 -5 6 3 10 2 10 -3 0 -13 -28 -36 -47 -38 -8 -2 -18 -6 -21 -10 -4
-4 1 -4 10 -1 9 3 18 1 20 -5 5 -13 85 10 92 27 2 6 -2 12 -10 12 -7 0 -10 -5
-7 -10 4 -6 0 -8 -10 -4 -8 3 -21 -1 -27 -9 -14 -16 -35 -20 -25 -4 3 5 48 30
100 56 52 26 95 53 95 60 0 7 5 24 11 38 11 24 13 24 38 8 14 -9 28 -18 31
-20 3 -2 -4 -10 -14 -18 -11 -7 -16 -17 -12 -21 3 -4 16 3 28 15 17 17 19 24
9 35 -9 12 -8 16 4 21 8 3 15 13 15 23 0 14 -3 14 -20 -5 -12 -12 -27 -22 -34
-22 -20 0 -27 27 -12 42 7 7 13 20 14 28 1 28 28 90 36 83 4 -4 4 0 0 10 -9
24 -23 21 -36 -8z"/>
<path d="M4020 684 c0 -11 38 -74 45 -74 11 0 4 18 -20 50 -14 19 -25 30 -25
24z"/>
<path d="M2210 658 c-1 -5 -3 -14 -4 -20 0 -7 -12 -14 -26 -15 -23 -2 -23 -2
-5 6 13 7 15 10 5 10 -8 0 -22 -4 -30 -9 -11 -7 -11 -10 -2 -10 7 0 10 -4 7
-10 -3 -5 0 -10 7 -10 10 0 9 -3 -2 -10 -8 -5 -11 -12 -7 -17 9 -9 28 17 21
29 -3 4 1 8 10 8 8 0 16 -3 19 -7 2 -5 2 -3 1 4 -2 6 2 13 8 15 6 2 8 13 5 23
-2 11 -6 17 -7 13z"/>
<path d="M2862 565 c-23 -53 -42 -101 -41 -108 0 -7 5 -1 11 13 7 14 27 58 45
99 19 40 33 77 31 82 -2 5 -22 -34 -46 -86z"/>
<path d="M2116 612 c-3 -5 1 -9 9 -9 8 0 12 4 9 9 -3 4 -7 8 -9 8 -2 0 -6 -4
-9 -8z"/>
<path d="M2355 606 c-20 -21 -26 -36 -16 -36 6 0 15 9 21 21 13 24 10 32 -5
15z"/>
<path d="M2703 555 c0 -38 2 -53 4 -32 2 20 2 52 0 70 -2 17 -4 1 -4 -38z"/>
<path d="M2268 576 c-19 -14 -23 -26 -10 -26 4 0 13 9 20 20 14 23 13 24 -10
6z"/>
<path d="M3181 570 c-13 -153 -62 -449 -86 -528 -8 -23 -10 -42 -5 -42 12 0
15 13 49 185 33 167 55 339 48 376 -2 13 -5 17 -6 9z"/>
<path d="M4071 563 c20 -33 75 -61 91 -45 9 9 7 12 -11 12 -12 0 -38 12 -58
27 -32 25 -35 25 -22 6z"/>
<path d="M2096 515 c-17 -13 -18 -15 -3 -15 9 0 17 4 17 10 0 5 7 7 15 4 8 -4
15 -1 15 5 0 15 -21 13 -44 -4z"/>
<path d="M2171 517 c-1 -10 -5 -16 -9 -13 -5 3 -9 -2 -9 -10 0 -13 2 -13 15 0
8 8 12 20 9 28 -4 9 -6 7 -6 -5z"/>
<path d="M2215 501 c-3 -10 -2 -26 1 -36 5 -13 4 -16 -5 -11 -7 4 -10 3 -9 -5
2 -6 -3 -14 -11 -17 -10 -3 -11 0 -5 9 6 10 2 10 -16 -2 -14 -9 -34 -22 -46
-29 -20 -12 -20 -15 -5 -32 16 -19 37 -25 26 -8 -3 6 0 10 8 10 20 0 74 57 79
85 3 14 1 22 -5 18 -5 -3 -6 3 -2 16 3 11 4 21 1 21 -2 0 -7 -8 -11 -19z m-35
-86 c0 -8 -3 -15 -7 -15 -5 0 -19 -3 -33 -7 l-25 -6 25 21 c30 25 40 27 40 7z"/>
<path d="M3924 488 c9 -42 24 -75 35 -83 17 -10 13 5 -15 60 -16 31 -23 40
-20 23z"/>
<path d="M2110 490 c-8 -5 -11 -12 -8 -16 4 -3 14 1 23 10 18 17 9 21 -15 6z"/>
<path d="M2036 428 c3 -5 10 -6 15 -3 13 9 11 12 -6 12 -8 0 -12 -4 -9 -9z"/>
<path d="M2811 424 c0 -11 3 -14 6 -6 3 7 2 16 -1 19 -3 4 -6 -2 -5 -13z"/>
<path d="M2791 369 c-37 -94 -46 -121 -62 -204 -16 -87 -17 -88 -19 -40 -2 29
-5 40 -7 26 -7 -36 7 -151 18 -151 5 0 9 21 9 48 0 48 22 182 38 238 6 17 17
43 27 57 9 14 15 33 13 43 -2 10 -8 5 -17 -17z"/>
<path d="M3001 375 c-1 -11 -4 -31 -6 -45 l-6 -25 11 25 c6 13 9 33 7 45 -4
19 -4 19 -6 0z"/>
<path d="M2083 342 c4 -2 2 -11 -5 -20 -10 -14 -10 -15 2 -4 17 14 44 16 35 2
-3 -5 1 -10 10 -10 9 0 13 -4 10 -10 -3 -6 1 -7 10 -4 13 5 12 9 -6 25 -12 11
-26 19 -30 19 -4 0 -13 2 -21 3 -7 2 -9 2 -5 -1z"/>
<path d="M2030 330 c0 -5 5 -10 10 -10 6 0 10 5 10 10 0 6 -4 10 -10 10 -5 0
-10 -4 -10 -10z"/>
<path d="M2703 255 c0 -44 2 -61 4 -37 2 23 2 59 0 80 -2 20 -4 1 -4 -43z"/>
<path d="M2540 309 c0 -2 7 -36 15 -74 9 -39 23 -107 33 -152 9 -46 21 -83 25
-83 5 0 6 8 3 18 -3 9 -8 35 -12 57 -13 80 -64 266 -64 234z"/>
<path d="M2952 191 c-17 -55 -32 -105 -31 -113 0 -7 16 34 35 92 18 58 33 109
31 113 -1 4 -17 -37 -35 -92z"/>
<path d="M1717 63 c-6 -60 -2 -77 13 -53 12 19 13 110 1 110 -4 0 -11 -26 -14
-57z"/>
<path d="M4197 113 c-12 -19 -19 -113 -9 -113 5 0 13 25 17 56 6 53 3 75 -8
57z"/>
<path d="M1761 59 c-14 -53 -7 -78 12 -44 14 25 21 95 9 95 -4 0 -14 -23 -21
-51z"/>
<path d="M2911 44 c0 -11 3 -14 6 -6 3 7 2 16 -1 19 -3 4 -6 -2 -5 -13z"/>
</g>
</svg>
